<?xml version="1.0"?>
<svg width="1024" height="1024" xmlns="http://www.w3.org/2000/svg" xmlns:svg="http://www.w3.org/2000/svg" preserveAspectRatio="xMidYMid meet">
 <metadata>Created by potrace 1.15, written by Peter Selinger 2001-2017</metadata>
 <g class="layer">
  <title>background</title>
  <ellipse cx="511.937527" cy="511.937526" fill="#191970" id="svg_4" rx="507.031262" ry="507.031262" stroke="#000000" stroke-opacity="0" stroke-width="5"/>
 </g>
 <g class="layer" display="inline">
  <title>main</title>
  <g id="svg_8">
   <g fill="#000000" id="svg_1" stroke="#000000" stroke-width="50" transform="translate(0 1050) scale(0.1 -0.1)">
    <path d="m2908.53485,8509.42643c-83.36396,-8.66799 -198.20207,-32.07159 -271.35819,-56.34199c-90.16918,-29.4712 -120.79267,-43.34 -210.96185,-98.81519c-46.78589,-29.4712 -69.75351,-38.1392 -97.82505,-38.1392c-74.85743,-0.8668 -159.9227,-28.6044 -159.9227,-52.00799c0,-22.5368 17.01306,-26.004 68.90287,-12.1352c92.72113,25.1372 264.55297,-11.2684 411.71586,-87.5468c354.72214,-184.62838 661.80774,-555.61875 868.51633,-1047.96111c184.59162,-442.06796 351.31954,-1128.5735 461.90438,-1903.49264c54.44176,-377.92477 74.00677,-600.69235 90.16917,-1017.62311c11.05849,-279.10958 13.61044,-313.78157 28.92219,-345.85318c9.35718,-19.9364 16.16239,-36.40559 15.31174,-37.27239c-0.85064,-0.86681 -64.64959,-33.8052 -142.05899,-72.8112c-77.40938,-39.006 -331.75451,-173.35998 -565.68398,-297.31237c-816.62652,-432.53317 -1140.72516,-589.42395 -1441.8562,-695.17354c-427.02761,-149.95639 -677.11947,-153.42359 -769.84061,-10.4016c-34.02611,52.8748 -45.93524,100.54879 -46.78589,184.62838c-0.85065,262.64038 243.28665,608.49355 607.36596,861.59913c86.76657,59.8092 104.63028,81.47919 77.40939,91.88079c-26.37023,10.4016 -222.87099,-114.41758 -344.51431,-218.43358c-293.47515,-251.37198 -444.04066,-520.07995 -432.13152,-769.71833c5.10391,-101.4156 28.07153,-162.95839 84.2146,-226.23479c210.96186,-234.90278 748.57431,-142.15518 1717.46764,296.44558c100.37701,45.9404 429.57956,201.96438 731.56125,347.58677c880.42545,423.86516 1281.93349,608.49355 1692.79871,777.51954c517.19679,212.36598 1013.12726,382.25877 1433.34966,488.87515c159.07203,39.87281 414.26782,97.94839 416.81978,94.4812c0.85065,-1.73361 8.50653,-33.8052 16.16241,-71.9444c27.22088,-126.55278 40.83132,-167.29238 64.64959,-192.42958l23.81827,-23.4036l-201.60466,-45.0736c-921.25679,-204.56478 -1614.53868,-474.13955 -2216.80073,-860.73233c-223.72164,-143.02198 -251.79317,-171.62637 -161.624,-165.55878c13.61045,0.8668 29.77284,8.668 35.72742,17.336c11.05848,15.6024 180.33835,112.68398 334.30648,190.69598c590.35291,300.77958 1255.56326,508.81156 2129.1835,666.56914c637.98946,115.2844 1191.76431,169.89279 1654.51933,163.82519l207.55924,-2.6004l20.41567,24.2704c59.54568,71.07759 -5.95457,135.22079 -144.61095,140.42159c-37.42871,1.7336 -110.58484,7.8012 -162.47465,12.1352c-214.36446,21.66999 -544.41768,8.66799 -854.90588,-33.8052c-139.50702,-19.0696 -427.02761,-66.74359 -453.39785,-74.54479c-13.61043,-4.334 -15.31174,-2.6004 -8.50652,15.6024c9.35718,27.7376 7.65587,221.03398 -3.40261,259.17318l-9.35718,32.07159l91.01982,13.8688c347.91693,55.47519 656.70383,83.21279 991.86096,89.28039c506.98896,8.668 825.98369,-31.2048 1008.87401,-128.28639c131.0005,-69.344 204.15662,-173.35998 205.85793,-291.24477c0.85065,-100.54879 -38.27936,-158.62439 -159.07203,-240.10358c-127.5979,-86.67999 -276.46211,-149.95639 -562.28139,-239.23679c-162.47465,-51.14118 -402.35869,-149.08958 -418.52109,-170.75958c-28.07153,-37.2724 0,-92.74759 45.93524,-91.01399c45.93525,0.8668 306.23494,71.07759 408.31326,109.21679c391.30021,146.48919 592.90487,256.57278 716.2495,391.79357c86.76658,94.48119 113.1368,155.15718 118.24071,269.57477c3.40262,76.2784 0.85066,97.9484 -15.31174,150.82319c-24.66893,77.14519 -68.0522,145.62239 -132.70181,208.89878c-62.94829,61.54279 -79.11069,73.678 -152.26681,117.01799c-329.20257,195.02999 -896.58786,257.43958 -1628.99977,180.29439c-142.90964,-15.6024 -397.25477,-50.27439 -501.88504,-69.344c-39.98068,-6.93439 -76.55873,-13.002 -82.51331,-13.002c-5.10391,0 -17.8637,28.6044 -27.22088,63.2764c-182.03966,627.56315 -602.26205,1332.27148 -1122.86146,1881.82264c-471.26155,497.54316 -1018.23118,915.34073 -1510.75905,1153.7107c-514.64483,249.63839 -1173.9006,416.06397 -1624.74649,409.99637c-60.39634,0 -124.19529,-2.6004 -140.35768,-4.334l0,0zm289.22188,-93.61439c387.8976,-45.94039 868.51633,-193.29638 1262.36849,-389.19317c656.70382,-326.78357 1365.29745,-939.61111 1863.77989,-1613.11466c98.6757,-133.48719 289.22188,-423.86517 358.12474,-546.08395c69.75353,-124.8192 190.5462,-372.72397 241.58536,-496.67637c54.44176,-132.62038 146.31224,-410.86316 137.80571,-418.66436c-3.40261,-2.6004 -45.93523,-13.8688 -95.27308,-24.27039c-677.11949,-148.2228 -1454.61599,-436.00037 -2386.93125,-885.00274c-139.50703,-67.61039 -259.44905,-124.81918 -265.40362,-127.41958c-8.50652,-3.46719 -9.35718,17.336 -5.10392,102.28239c11.05849,220.16718 -43.38328,820.85953 -111.43549,1228.2555c-139.50703,830.39433 -340.26104,1521.23387 -577.59313,1991.90623c-140.35768,277.37598 -257.74774,444.66836 -446.59262,636.23115c-217.76707,221.03398 -424.47566,351.05397 -651.5999,411.72996l-75.70809,19.9364l58.69503,26.87081c190.54619,88.41358 415.96914,115.28439 693.28188,83.21279l0,0l0,-0.00001z" fill="#ffffff" id="svg_2" stroke="#ffffff"/>
    <path d="m2851.54112,7834.18929c-3.40261,-9.5348 24.66893,-107.48318 72.30547,-249.63838c139.50704,-421.26476 183.74097,-645.76594 205.00728,-1041.02671c14.4611,-261.77358 21.26632,-1415.48428 10.20783,-1700.66146c-13.61043,-351.05397 -39.13002,-624.96275 -77.40938,-830.39434c-22.96762,-121.35198 -51.03916,-313.78157 -51.03916,-347.58676c0,-40.7396 29.77284,-72.81119 74.00677,-78.8788c54.44177,-7.8012 77.4094,20.80321 115.68876,145.62239c43.38329,138.68799 53.59112,188.09558 77.40939,371.85717c39.13002,297.31238 43.38328,381.39198 42.53263,810.45794c0,407.39596 -6.80522,579.02235 -46.78589,1204.8519c-33.17546,533.94876 -59.54568,732.44594 -131.0005,1014.15591c-38.27938,148.22279 -79.96135,269.57477 -176.93575,511.41196c-78.26004,195.89678 -98.6757,229.70198 -113.98745,189.82918l0,0z" fill="#ffffff" id="svg_3" stroke="#ffffff"/>
   </g>
   <path d="m322.32659,530.70593c0.06715,-1.65971 0.67878,-2.37757 1.20641,-2.79051c0.45128,-0.35315 1.26452,-1.08282 1.89777,-1.72343c0.73008,-0.73861 1.12025,-1.15832 1.54161,-1.59447c0.44551,-0.46111 1.41516,-1.45108 1.94442,-1.97335c0.5527,-0.54539 1.13419,-1.10456 1.74899,-1.66781c0.63504,-0.58181 1.30074,-1.16585 2.00084,-1.74199c0.71768,-0.59061 2.24714,-1.74265 3.05944,-2.29453c0.82818,-0.56265 1.68975,-1.10464 2.57871,-1.63378c0.90541,-0.53894 1.83935,-1.06244 2.797,-1.57818c0.97385,-0.52447 2.98858,-1.55403 4.0247,-2.0652c1.04713,-0.51659 2.10523,-1.02503 3.16918,-1.52407c1.06127,-0.49778 2.11926,-0.98182 3.16917,-1.44988c1.03338,-0.4607 3.04181,-1.32428 4.00934,-1.72205c0.9404,-0.38665 1.86147,-0.75165 2.76759,-1.09283c0.8899,-0.33506 1.77194,-0.65023 2.65008,-0.94442c0.87307,-0.2925 2.63189,-0.82989 3.5235,-1.07612c0.89445,-0.24703 1.79224,-0.4759 2.68925,-0.68477c0.88904,-0.20702 1.76998,-0.39312 2.63889,-0.55489c0.84999,-0.15824 2.48703,-0.40507 3.26682,-0.49033c0.75132,-0.08214 1.47759,-0.1382 2.17852,-0.17623c0.67624,-0.03666 1.32952,-0.05516 1.96028,-0.06491c0.60924,-0.0094 1.76718,-0.00927 2.3177,-0.00927c0.53278,0 1.04878,0 1.5489,0c0.48522,0 0.95643,0 1.41461,0c0.44601,0 1.30545,0 1.72052,0c0.4058,0 0.80222,0 1.18934,0c0.37778,0 0.74623,0 1.10536,0c0.34981,0 1.02142,0 1.34324,0c0.31247,0 0.61565,0 0.90945,0c0.28453,0 0.55968,-0.00003 0.82553,0c0.97026,0.00009 1.81683,-0.02808 2.38828,0.08793c0.95483,0.19384 1.72164,0.64315 2.63283,0.81734c0.73355,0.14023 1.46723,0.03337 2.43287,0.12657c0.91502,0.08832 1.46513,0.59081 2.2852,1.00761l0.15688,0.02148" fill="#ffffff" id="svg_13" stroke="#ffffff" stroke-width="20"/>
  </g>
 </g>
</svg>